<mxfile host="app.diagrams.net" agent="Mozilla/5.0 (X11; Linux x86_64) AppleWebKit/537.36 (KHTML, like Gecko) Chrome/131.0.0.0 Safari/537.36" version="25.0.1">
  <diagram name="Page-1" id="16e2658f-23c8-b752-8be9-c03fbebb8bbe">
    <mxGraphModel dx="463" dy="464" grid="1" gridSize="10" guides="1" tooltips="1" connect="1" arrows="1" fold="1" page="1" pageScale="1" pageWidth="1100" pageHeight="850" background="none" math="0" shadow="0">
      <root>
        <mxCell id="0" />
        <mxCell id="1" parent="0" />
        <mxCell id="FXF9veNPE9yyInTg-4ZM-4" style="edgeStyle=orthogonalEdgeStyle;rounded=0;orthogonalLoop=1;jettySize=auto;html=1;exitX=1;exitY=0.5;exitDx=0;exitDy=0;entryX=0;entryY=0.5;entryDx=0;entryDy=0;endArrow=async;endFill=0;" edge="1" parent="1" source="FXF9veNPE9yyInTg-4ZM-2" target="FXF9veNPE9yyInTg-4ZM-3">
          <mxGeometry relative="1" as="geometry" />
        </mxCell>
        <mxCell id="FXF9veNPE9yyInTg-4ZM-2" value="&lt;font&gt;5V&lt;/font&gt;" style="text;html=1;align=center;verticalAlign=middle;whiteSpace=wrap;rounded=0;" vertex="1" parent="1">
          <mxGeometry x="40" y="410" width="30" height="30" as="geometry" />
        </mxCell>
        <mxCell id="FXF9veNPE9yyInTg-4ZM-12" style="edgeStyle=orthogonalEdgeStyle;rounded=0;orthogonalLoop=1;jettySize=auto;html=1;exitX=1;exitY=0.5;exitDx=0;exitDy=0;entryX=0;entryY=0.5;entryDx=0;entryDy=0;endArrow=async;endFill=0;" edge="1" parent="1" source="FXF9veNPE9yyInTg-4ZM-3" target="FXF9veNPE9yyInTg-4ZM-10">
          <mxGeometry relative="1" as="geometry" />
        </mxCell>
        <mxCell id="FXF9veNPE9yyInTg-4ZM-3" value="Voltage Regulator" style="swimlane;whiteSpace=wrap;html=1;" vertex="1" collapsed="1" parent="1">
          <mxGeometry x="160" y="410" width="140" height="30" as="geometry">
            <mxRectangle x="100" y="400" width="200" height="200" as="alternateBounds" />
          </mxGeometry>
        </mxCell>
        <mxCell id="FXF9veNPE9yyInTg-4ZM-10" value="&lt;font&gt;3.3V&lt;/font&gt;" style="text;html=1;align=center;verticalAlign=middle;whiteSpace=wrap;rounded=0;" vertex="1" parent="1">
          <mxGeometry x="390" y="410" width="30" height="30" as="geometry" />
        </mxCell>
        <mxCell id="FXF9veNPE9yyInTg-4ZM-11" value="&lt;font&gt;5V&lt;/font&gt;" style="text;html=1;align=center;verticalAlign=middle;whiteSpace=wrap;rounded=0;" vertex="1" parent="1">
          <mxGeometry x="100" y="330" width="30" height="30" as="geometry" />
        </mxCell>
        <mxCell id="FXF9veNPE9yyInTg-4ZM-13" value="" style="endArrow=async;html=1;rounded=0;entryX=0.5;entryY=1;entryDx=0;entryDy=0;endFill=0;" edge="1" parent="1" target="FXF9veNPE9yyInTg-4ZM-11">
          <mxGeometry width="50" height="50" relative="1" as="geometry">
            <mxPoint x="114.8" y="425" as="sourcePoint" />
            <mxPoint x="114.8" y="370" as="targetPoint" />
          </mxGeometry>
        </mxCell>
      </root>
    </mxGraphModel>
  </diagram>
</mxfile>
